<svg width="121" height="40" viewBox="0 0 121 40" fill="none" xmlns="http://www.w3.org/2000/svg">
<path d="M52.7179 10.1328H50.1595L42.5237 29.3811H45.2668L46.8098 25.5039H56.0412L57.5842 29.3811H60.3273L52.7179 10.1328ZM51.3991 13.8175L54.9598 22.7954H47.8648L51.3991 13.8175Z" fill="#3581D6"/>
<path d="M65.9317 19.8527V21.0901H60.0632V19.8527H65.9317Z" fill="#111111"/>
<path d="M69.2817 9.91333H67.9893V29.8078H79.911V28.4467H69.2817V9.91333Z" fill="#111111"/>
<path d="M85.7666 15.3025C83.872 15.3098 82.0573 16.0995 80.7201 17.4988C79.3828 18.8981 78.632 20.7928 78.632 22.7681C78.6359 24.2381 79.0568 25.674 79.8416 26.8953C80.6265 28.1165 81.7402 29.0685 83.0428 29.6314C84.3454 30.1943 85.7785 30.3429 87.162 30.0587C88.5454 29.7744 89.8172 29.0699 90.8175 28.0338L90.9758 27.8689L90.0658 26.9064L89.9076 27.0714C89.1278 27.8791 88.1458 28.4416 87.0738 28.6947C86.0018 28.9478 84.8831 28.8811 83.8457 28.5025C82.8083 28.1238 81.8941 27.4483 81.2076 26.5534C80.5211 25.6584 80.0902 24.5801 79.964 23.4418H92.9276V22.7681C92.9172 20.7914 92.1594 18.8988 90.8187 17.5011C89.478 16.1033 87.6626 15.3133 85.7666 15.3025ZM85.7666 16.6774C87.1953 16.6906 88.5703 17.2467 89.6337 18.2415C90.6972 19.2363 91.376 20.6013 91.5429 22.0806H79.964C80.1285 20.5941 80.8098 19.222 81.879 18.2238C82.9483 17.2256 84.3313 16.6706 85.7666 16.6636V16.6774Z" fill="#111111"/>
<path d="M103.399 15.7283L98.2951 28.5559L93.2442 15.8658L93.1914 15.7283H91.7803L97.3324 29.6558L97.3851 29.807H99.1919L104.797 15.7283H103.399Z" fill="#111111"/>
<path d="M110.771 15.3025C108.876 15.3134 107.062 16.1038 105.723 17.5019C104.385 18.9 103.63 20.7927 103.623 22.7681C103.624 24.2409 104.044 25.6803 104.829 26.9045C105.615 28.1286 106.731 29.0827 108.036 29.6461C109.341 30.2096 110.777 30.3571 112.163 30.0702C113.549 29.7832 114.822 29.0746 115.821 28.0338L115.98 27.8689L115.07 26.9064L114.911 27.0714C114.132 27.8832 113.149 28.4493 112.075 28.7048C111.001 28.9602 109.88 28.8947 108.84 28.5156C107.8 28.1365 106.884 27.4593 106.197 26.5618C105.509 25.6643 105.079 24.5829 104.955 23.4418H117.918V22.7681C117.908 20.7914 117.15 18.8988 115.809 17.5011C114.469 16.1033 112.653 15.3133 110.757 15.3025H110.771ZM110.771 16.6774C112.208 16.6772 113.596 17.2273 114.671 18.2233C115.745 19.2194 116.432 20.5919 116.6 22.0806H104.955C105.119 20.5918 105.803 19.2178 106.875 18.2193C107.947 17.2208 109.333 16.6672 110.771 16.6636V16.6774Z" fill="#111111"/>
<path d="M120.108 9.91272H118.815V29.7934H120.108V9.91272Z" fill="#111111"/>
<path d="M89.3142 34.3723C89.317 34.5249 89.2904 34.6765 89.2361 34.8182C89.1817 34.9599 89.1006 35.0888 88.9977 35.1972C88.7875 35.4155 88.503 35.5381 88.2064 35.5381C87.9098 35.5381 87.6252 35.4155 87.4151 35.1972C87.3121 35.0888 87.2311 34.9599 87.1767 34.8182C87.1223 34.6765 87.0958 34.5249 87.0986 34.3723V31.2788H86.1623V34.3723C86.1594 34.6529 86.2105 34.9313 86.3124 35.191C86.4143 35.4507 86.5651 35.6866 86.7557 35.8846C86.9453 36.0841 87.1714 36.2416 87.4207 36.3479C87.6699 36.4542 87.9371 36.5071 88.2064 36.5033C88.4739 36.5084 88.7395 36.4561 88.9868 36.3497C89.2341 36.2433 89.4577 36.085 89.6439 35.8846C89.834 35.6868 89.9835 35.4507 90.0833 35.1907C90.183 34.9307 90.231 34.6522 90.2241 34.3723V31.2788H89.2878L89.3142 34.3723Z" fill="#3581D6"/>
<path d="M96.4354 31.2783H95.0638L92.6109 33.6431V31.2783H91.6877V36.3654H92.6109V34.963L93.2175 34.3855L95.2353 36.3654H96.5804L93.9033 33.7256L96.4354 31.2783Z" fill="#3581D6"/>
<path d="M101.407 33.1207C101.403 32.6331 101.216 32.1666 100.885 31.8219C100.555 31.4772 100.107 31.2819 99.6397 31.2783H97.3186V36.3654H98.2549V34.9905H99.3627L100.154 36.3654H101.235L100.352 34.798C100.583 34.6947 100.79 34.5398 100.958 34.3443C101.255 34.0125 101.415 33.5737 101.407 33.1207ZM100.233 33.7393C100.156 33.8207 100.063 33.8846 99.961 33.9272C99.8589 33.9697 99.7495 33.99 99.6397 33.9868H98.3209V32.2545H99.6397C99.7495 32.2513 99.8589 32.2716 99.961 32.3141C100.063 32.3567 100.156 32.4206 100.233 32.502C100.312 32.5826 100.375 32.6789 100.418 32.7851C100.46 32.8913 100.482 33.0054 100.482 33.1207C100.482 33.2359 100.46 33.35 100.418 33.4562C100.375 33.5624 100.312 33.6587 100.233 33.7393Z" fill="#3581D6"/>
<path d="M105.179 31.2783H104.546L102.528 36.3654H103.53L103.913 35.4029H106.049L106.445 36.3654H107.368L105.337 31.2783H105.179ZM104.295 34.4405L104.968 32.7632L105.627 34.4405H104.295Z" fill="#3581D6"/>
<path d="M109.544 31.2783H108.608V36.3654H109.544V31.2783Z" fill="#3581D6"/>
<path d="M114.186 34.5643L111.997 31.2783H111.799H111.285H111.1V36.3654H112.024V33.0244L114.252 36.3654H114.45H114.925H115.11V31.2783H114.186V34.5643Z" fill="#3581D6"/>
<path d="M119.844 32.2545V31.2783H116.547V36.3654H119.844V35.4029H117.483V34.3168H119.593V33.3406H117.483V32.2545H119.844Z" fill="#3581D6"/>
<path d="M24.0808 24.2386L24.0281 34.2752L16.2209 29.7518L16.0758 19.4678L24.0808 24.2386Z" fill="#3581D6"/>
<path d="M16.4713 9.85786L16.5373 19.9082L24.3444 15.3849L24.4895 5.08704L16.4713 9.85786Z" fill="#6EB2FD"/>
<path d="M8.44025 24.5966L8.50619 34.6332L16.3134 30.1098L16.4584 19.812L8.44025 24.5966Z" fill="#6EB2FD"/>
<path d="M24.4899 24.2386L24.5426 34.2752L32.3498 29.7518L32.4949 19.4678L24.4899 24.2386Z" fill="#6EB2FD"/>
<path d="M0.395569 9.85786L0.44832 19.9082L8.2555 15.3849L8.40056 5.08704L0.395569 9.85786Z" fill="#6EB2FD"/>
<path d="M16.4584 9.85786L16.4057 19.9082L8.58531 15.3849L8.44025 5.08704L16.4584 9.85786Z" fill="#3581D6"/>
<path d="M8.40056 24.5966L8.34781 34.6332L0.540635 30.1098L0.395569 19.812L8.40056 24.5966Z" fill="#3581D6"/>
<path d="M32.4949 10.1468L32.4421 20.1833L24.6217 15.66L24.4899 5.36218L32.4949 10.1468Z" fill="#3581D6"/>
<path d="M24.3971 15.1926L16.1415 19.9909L24.2257 24.5143L32.1647 20.1834L24.3971 15.1926Z" fill="#FFF700"/>
<path d="M16.6299 0.371094L8.37433 5.16941L16.4716 9.69276L24.3975 5.3619L16.6299 0.371094Z" fill="#FFF700"/>
<path d="M8.58497 15.1512L0.329407 19.9496L8.41353 24.4729L16.3526 20.1558L8.58497 15.1512Z" fill="#FFF700"/>
<path d="M16.5113 29.6149L8.26892 34.4269L16.353 38.9503L24.2921 34.6194L16.5113 29.6149Z" fill="#FFF700"/>
<path d="M16.3924 39.6239L16.2342 39.5415L0 29.7248V9.91286L16.3924 0L16.5375 0.0962414L32.7717 9.91286V29.7248L16.3924 39.6239ZM0.567075 29.3536L16.3924 38.9778L32.2178 29.4224V10.2703L16.3924 0.728685L0.606639 10.2703L0.567075 29.3536Z" fill="#111111"/>
<path d="M16.4846 10.2287L8.20264 5.30666L8.49277 4.75671L16.4714 9.50004L24.3445 4.81171L24.6346 5.36166L16.4846 10.2287Z" fill="#111111"/>
<path d="M16.177 9.85371L16.0732 29.8441L16.6799 29.8475L16.7836 9.85713L16.177 9.85371Z" fill="#111111"/>
<path d="M24.3313 34.8805L16.3527 30.1234L8.49277 34.8117L8.18945 34.2755L16.3527 29.4084L24.6346 34.3305L24.3313 34.8805Z" fill="#111111"/>
<path d="M24.0073 24.5415L23.9484 34.5917L24.5551 34.5955L24.6139 24.5454L24.0073 24.5415Z" fill="#111111"/>
<path d="M24.1018 5.07969L24.0415 15.3773L24.6481 15.3812L24.7085 5.08355L24.1018 5.07969Z" fill="#111111"/>
<path d="M8.20445 24.4731L8.14508 34.6057L8.75171 34.6096L8.81108 24.4769L8.20445 24.4731Z" fill="#111111"/>
<path d="M8.29531 5.09051L8.23779 15.1957L8.84442 15.1994L8.90194 5.09427L8.29531 5.09051Z" fill="#111111"/>
<path d="M24.2393 24.8993L16.1288 20.1148L16.4189 19.5648L24.2525 24.1844L32.2707 19.6336L32.5608 20.1835L24.2393 24.8993Z" fill="#111111"/>
<path d="M32.3364 20.2934L24.3446 15.7426L16.4847 20.2384L16.1945 19.6885L24.3446 15.0139L32.6265 19.7435L32.3364 20.2934Z" fill="#111111"/>
<path d="M8.50569 24.748L0.250122 20.1146L0.540254 19.5647L8.50569 24.033L16.392 19.6197L16.6821 20.1834L8.50569 24.748Z" fill="#111111"/>
<path d="M16.2867 20.2386L8.53227 15.619L0.434964 20.1836L0.15802 19.6336L8.54546 14.9041L16.59 19.6886L16.2867 20.2386Z" fill="#111111"/>
</svg>
